# xmcd
#
# Track frame offsets: 
#        200
#        14605
#        33030
#        46667
#        60130
#        72402
#        83872
#        100042
#        112027
#        124190
#        147877
#        163837
#        177995
#
# Disc length: 2602 seconds
#
# Revision: 0
# Processed by: cddbd v1.5.2PL0 Copyright (c) Steve Scherf et al.
# Submitted via: ExactAudioCopy v1.3
#
DISCID=a60a280d
DTITLE=Bleeker St. - I Need A Gun And A Drink
DYEAR=1993
DGENRE=Blues
TTITLE0=I Need A Gun And A Drink
TTITLE1=Highway 69
TTITLE2=Go Fly A Kite
TTITLE3=Working In A Restaurant
TTITLE4=Police Dog Blues
TTITLE5=Homeless (It Could Happen To You)
TTITLE6=Help Me
TTITLE7=Otherside
TTITLE8=My Baby
TTITLE9=Terraplane Blues
TTITLE10=Heart In Sorrow
TTITLE11=Uptempo
TTITLE12=If I Pay You
EXTD=
EXTT0=
EXTT1=
EXTT2=
EXTT3=
EXTT4=
EXTT5=
EXTT6=
EXTT7=
EXTT8=
EXTT9=
EXTT10=
EXTT11=
EXTT12=
PLAYORDER=
